<?xml version="1.0" standalone="no"?>
<!DOCTYPE svg PUBLIC "-//W3C//DTD SVG 20010904//EN"
 "http://www.w3.org/TR/2001/REC-SVG-20010904/DTD/svg10.dtd">
<svg version="1.0" xmlns="http://www.w3.org/2000/svg"
 width="256.000000pt" height="256.000000pt" viewBox="0 0 256.000000 256.000000"
 preserveAspectRatio="xMidYMid meet">
<metadata>
Created by potrace 1.14, written by Peter Selinger 2001-2017
</metadata>
<g transform="translate(0.000000,256.000000) scale(0.100000,-0.100000)"
fill="#000000" stroke="none">
<path d="M1544 2359 l-202 -202 -62 -161 c-78 -202 -79 -205 -80 -135 0 30 -5
60 -12 67 -36 36 -52 23 -456 -381 l-392 -393 0 -54 c0 -30 7 -189 16 -352
l15 -298 -23 -30 c-13 -16 -26 -29 -29 -29 -3 -1 -9 36 -12 80 -7 88 -17 109
-52 109 -47 0 -54 -23 -46 -165 l7 -130 -108 -111 c-59 -60 -108 -117 -108
-125 0 -26 36 -52 62 -46 13 4 69 53 125 109 l103 103 122 -7 c68 -4 131 -5
140 -2 10 3 21 17 24 31 12 46 -5 57 -100 68 l-87 10 29 28 30 29 298 -16
c165 -9 321 -18 349 -21 l50 -5 397 398 c324 322 398 402 398 423 0 37 -17 47
-80 51 l-55 3 170 64 170 64 198 196 c109 108 203 204 208 213 15 27 -29 749
-46 767 -11 11 -91 19 -352 32 -186 10 -353 18 -372 19 -32 0 -51 -16 -237
-201z m600 81 c110 -6 201 -12 202 -13 2 -2 -64 -70 -147 -152 l-151 -150 7
78 c5 55 4 81 -5 92 -18 21 -67 19 -79 -3 -6 -10 -15 -78 -22 -149 l-12 -131
-103 -103 c-57 -57 -104 -98 -104 -91 0 7 18 150 40 319 22 170 40 311 40 316
0 4 30 5 68 2 37 -3 157 -10 266 -15z m-494 -436 l-41 -319 -109 -110 c-111
-112 -129 -142 -98 -173 31 -31 61 -14 173 98 l111 110 319 41 c175 22 325 38
332 37 7 -2 -46 -62 -119 -134 l-133 -132 -295 -112 c-269 -103 -330 -133
-330 -162 0 -5 10 -19 23 -32 22 -22 28 -23 153 -19 l129 5 -90 -90 -90 -90
-220 -11 c-121 -6 -260 -14 -310 -17 l-90 -6 103 104 c79 80 102 110 102 130
0 28 -23 48 -56 48 -9 0 -64 -46 -122 -102 l-104 -103 6 95 c3 52 11 192 17
310 l11 215 89 90 89 90 0 -136 c0 -92 4 -139 12 -147 16 -16 63 -15 75 1 6 6
61 145 123 307 l112 295 132 133 c75 76 132 127 134 119 2 -8 -15 -158 -38
-333z m781 289 c0 -32 6 -152 13 -268 7 -115 12 -211 11 -212 -1 -3 -638 -83
-641 -80 -4 4 598 617 607 617 5 0 9 -26 10 -57z m-1636 -1135 l-16 -303 -152
-152 c-83 -84 -153 -150 -155 -148 -3 2 -11 127 -19 277 l-14 272 183 183
c100 100 184 180 186 178 2 -2 -3 -140 -13 -307z m494 -534 l-186 -186 -214
11 c-118 6 -243 14 -278 17 l-63 6 43 44 43 44 193 0 c181 0 194 1 214 21 14
14 18 27 14 42 -14 45 -30 49 -180 42 l-140 -7 60 61 60 60 265 14 c146 8 285
15 310 16 l45 1 -186 -186z"/>
<path d="M1248 1319 c-21 -12 -24 -59 -6 -77 15 -15 61 -15 76 0 18 18 15 53
-6 71 -21 19 -39 21 -64 6z"/>
</g>
</svg>
